<svg width="476" height="743" viewBox="0 0 476 743" fill="none" xmlns="http://www.w3.org/2000/svg">
<g opacity="0.8">
<g filter="url(#filter0_f_12_18)">
<path d="M-3.92563 261.819C-159.54 352.662 -193.581 527.067 -176.94 617.362C-116.772 647.782 -0.440133 647.763 131.233 595.108C262.905 542.452 376.786 251.709 398.807 89.0718C319.929 99.1707 151.689 170.976 -3.92563 261.819Z" fill="url(#paint0_linear_12_18)"/>
</g>
<g filter="url(#filter1_f_12_18)">
<path d="M-65.9989 388.193C-161.534 443.963 -182.433 551.033 -172.216 606.467C-135.278 625.143 -63.8588 625.131 16.978 592.805C97.8148 560.479 167.729 381.986 181.247 282.14C132.823 288.34 29.5363 332.423 -65.9989 388.193Z" fill="url(#paint1_linear_12_18)"/>
</g>
<g filter="url(#filter2_f_12_18)">
<path d="M-113.084 449.046C-175.554 485.501 -177.807 567.093 -171.125 603.332C-146.969 615.542 -85.4435 634.679 -32.5839 613.549C20.2757 592.419 51.1645 456.593 60.0015 391.322C28.3358 395.373 -50.6132 412.59 -113.084 449.046Z" fill="url(#paint2_linear_12_18)"/>
</g>
<g filter="url(#filter3_f_12_18)">
<path d="M-105.629 450.249C-168.099 486.704 -170.352 568.296 -163.67 604.535C-139.514 616.745 -77.9885 635.882 -25.1288 614.752C27.7308 593.622 58.6196 457.797 67.4566 392.525C35.7909 396.577 -43.1581 413.793 -105.629 450.249Z" fill="url(#paint3_linear_12_18)"/>
</g>
<g style="mix-blend-mode:color-dodge" filter="url(#filter4_f_12_18)">
<path d="M286.672 155.107C274.331 155.877 95.9859 169.581 29.0078 221.234C-17.0498 256.753 -94.0246 306.225 -144.889 423.899C-195.754 541.574 -166.545 528.442 -191.733 589.709C-191.733 589.709 -69.5802 413.429 -1.27648 337.769C67.0273 262.109 286.672 155.107 286.672 155.107Z" fill="url(#paint4_linear_12_18)"/>
</g>
<g style="mix-blend-mode:color-dodge" filter="url(#filter5_f_12_18)">
<path d="M340.561 286.185C339.073 298.46 281.859 405.084 226.393 468.94C188.251 512.85 134.379 586.813 13.942 630.737C-101.436 672.815 -116.66 599.551 -172.8 612.29C-177.723 613.724 -180.434 614.48 -180.434 614.48C-177.803 613.573 -175.262 612.849 -172.8 612.29C-134.481 601.132 37.8328 548.905 108.292 492.385C187.802 428.604 340.561 286.185 340.561 286.185Z" fill="url(#paint5_linear_12_18)"/>
</g>
</g>
<defs>
<filter id="filter0_f_12_18" x="-257.537" y="12.3035" width="733.112" height="702.42" filterUnits="userSpaceOnUse" color-interpolation-filters="sRGB">
<feFlood flood-opacity="0" result="BackgroundImageFix"/>
<feBlend mode="normal" in="SourceGraphic" in2="BackgroundImageFix" result="shape"/>
<feGaussianBlur stdDeviation="38.3842" result="effect1_foregroundBlur_12_18"/>
</filter>
<filter id="filter1_f_12_18" x="-200.995" y="255.712" width="408.671" height="389.826" filterUnits="userSpaceOnUse" color-interpolation-filters="sRGB">
<feFlood flood-opacity="0" result="BackgroundImageFix"/>
<feBlend mode="normal" in="SourceGraphic" in2="BackgroundImageFix" result="shape"/>
<feGaussianBlur stdDeviation="13.2142" result="effect1_foregroundBlur_12_18"/>
</filter>
<filter id="filter2_f_12_18" x="-235.361" y="329.655" width="357.028" height="355.022" filterUnits="userSpaceOnUse" color-interpolation-filters="sRGB">
<feFlood flood-opacity="0" result="BackgroundImageFix"/>
<feBlend mode="normal" in="SourceGraphic" in2="BackgroundImageFix" result="shape"/>
<feGaussianBlur stdDeviation="30.8332" result="effect1_foregroundBlur_12_18"/>
</filter>
<filter id="filter3_f_12_18" x="-264.402" y="294.362" width="430.021" height="428.015" filterUnits="userSpaceOnUse" color-interpolation-filters="sRGB">
<feFlood flood-opacity="0" result="BackgroundImageFix"/>
<feBlend mode="normal" in="SourceGraphic" in2="BackgroundImageFix" result="shape"/>
<feGaussianBlur stdDeviation="49.0814" result="effect1_foregroundBlur_12_18"/>
</filter>
<filter id="filter4_f_12_18" x="-253.399" y="93.4404" width="601.737" height="557.935" filterUnits="userSpaceOnUse" color-interpolation-filters="sRGB">
<feFlood flood-opacity="0" result="BackgroundImageFix"/>
<feBlend mode="normal" in="SourceGraphic" in2="BackgroundImageFix" result="shape"/>
<feGaussianBlur stdDeviation="30.8332" result="effect1_foregroundBlur_12_18"/>
</filter>
<filter id="filter5_f_12_18" x="-242.1" y="224.519" width="644.327" height="481.064" filterUnits="userSpaceOnUse" color-interpolation-filters="sRGB">
<feFlood flood-opacity="0" result="BackgroundImageFix"/>
<feBlend mode="normal" in="SourceGraphic" in2="BackgroundImageFix" result="shape"/>
<feGaussianBlur stdDeviation="30.8332" result="effect1_foregroundBlur_12_18"/>
</filter>
<linearGradient id="paint0_linear_12_18" x1="-172.801" y1="621.216" x2="436.158" y2="68.2159" gradientUnits="userSpaceOnUse">
<stop stop-color="#2037ED"/>
<stop offset="1" stop-color="#2037ED" stop-opacity="0"/>
</linearGradient>
<linearGradient id="paint1_linear_12_18" x1="-169.675" y1="608.833" x2="204.176" y2="269.334" gradientUnits="userSpaceOnUse">
<stop stop-color="#2037ED"/>
<stop offset="1" stop-color="#2037ED" stop-opacity="0"/>
</linearGradient>
<linearGradient id="paint2_linear_12_18" x1="-169.463" y1="604.879" x2="74.9278" y2="382.877" gradientUnits="userSpaceOnUse">
<stop stop-color="#E5BDF6"/>
<stop offset="0.391774" stop-color="#C379E3"/>
<stop offset="1" stop-color="#B1B2F3" stop-opacity="0.42"/>
</linearGradient>
<linearGradient id="paint3_linear_12_18" x1="-162.008" y1="606.082" x2="82.3829" y2="384.081" gradientUnits="userSpaceOnUse">
<stop stop-color="white"/>
<stop offset="0.391774" stop-color="#E6ACFF" stop-opacity="0.37"/>
<stop offset="1" stop-color="#CCCDFF" stop-opacity="0.05"/>
</linearGradient>
<linearGradient id="paint4_linear_12_18" x1="-271.922" y1="328.341" x2="157.333" y2="397.631" gradientUnits="userSpaceOnUse">
<stop stop-color="#BBBBF3" stop-opacity="0.24"/>
<stop offset="0.46875" stop-color="#CACBF9" stop-opacity="0.97"/>
<stop offset="1" stop-color="#6C98F3" stop-opacity="0.09"/>
</linearGradient>
<linearGradient id="paint5_linear_12_18" x1="101.939" y1="763.12" x2="57.7695" y2="330.558" gradientUnits="userSpaceOnUse">
<stop stop-color="#BBBBF3" stop-opacity="0.24"/>
<stop offset="0.46875" stop-color="#CACBF9" stop-opacity="0.97"/>
<stop offset="1" stop-color="#6C98F3" stop-opacity="0.09"/>
</linearGradient>
</defs>
</svg>
